<svg width="338" height="504" viewBox="0 0 338 504" fill="none" xmlns="http://www.w3.org/2000/svg">
<path fill-rule="evenodd" clip-rule="evenodd" d="M337.225 19C337.225 8.5066 328.718 0 318.225 0H85.9634C75.4699 0 66.9633 8.50659 66.9633 19V191.019L10.0827 221.351C-6.94561 230.432 -1.15967 256.174 18.1166 257.095L66.9633 259.428V484.854C66.9633 495.347 75.4699 503.854 85.9633 503.854H318.225C328.718 503.854 337.225 495.347 337.225 484.854V380.834C337.225 379.037 335.844 377.542 334.053 377.398L301.901 372.104C290.26 370.188 283.161 358.235 287.049 347.096L305.151 295.229C309.336 283.238 300.805 270.596 288.119 269.99L66.9633 259.428V191.019L327.165 52.2639C333.357 48.962 337.225 42.516 337.225 35.4987V19ZM337.225 88.0188C337.225 85.7092 335.45 83.7871 333.148 83.6026C332.303 83.5349 331.457 83.7109 330.71 84.1096L132.262 189.933C115.234 199.014 121.02 224.756 140.296 225.677L317.318 234.132C328.155 234.649 337.225 226.003 337.225 215.153V88.0188ZM337.225 338.261C337.225 336.882 335.299 336.555 334.844 337.858C334.58 338.615 335.103 339.417 335.902 339.481C336.615 339.538 337.225 338.976 337.225 338.261Z" fill="#E76F51"/>
</svg>
